<svg xmlns="http://www.w3.org/2000/svg" viewBox="0 0 1400 900" width="1400" height="900">
  <defs>
    <style>
      .title { font-size: 22px; font-weight: bold; fill: #1a1a1a; }
      .layer-title { font-size: 15px; font-weight: bold; fill: #ffffff; }
      .component-title { font-size: 12px; font-weight: bold; fill: #ffffff; }
      .component-text { font-size: 10px; fill: #ffffff; }
      .arrow { stroke: #333333; stroke-width: 2.5; fill: none; marker-end: url(#arrowhead); }
      .layer-bg { fill-opacity: 0.1; stroke-width: 2; }
      .component-box { fill: #ffffff; stroke: #333333; stroke-width: 1.5; }
    </style>
    <marker id="arrowhead" markerWidth="10" markerHeight="10" refX="9" refY="3" orient="auto">
      <polygon points="0 0, 10 3, 0 6" fill="#333333" />
    </marker>
  </defs>

  <!-- Title -->
  <text x="700" y="40" text-anchor="middle" class="title">TZDB ODBC 驱动分层架构</text>

  <!-- Application Layer -->
  <rect x="50" y="80" width="1300" height="110" class="layer-bg" fill="#E3F2FD" stroke="#1976D2" stroke-width="2"/>
  <text x="70" y="110" class="layer-title" fill="#1976D2">应用层 (Application Layer)</text>
  
  <rect x="70" y="125" width="240" height="50" class="component-box"/>
  <text x="190" y="145" text-anchor="middle" class="component-title">DBeaver</text>
  <text x="190" y="160" text-anchor="middle" class="component-text">数据库管理工具</text>

  <rect x="330" y="125" width="240" height="50" class="component-box"/>
  <text x="450" y="145" text-anchor="middle" class="component-title">Excel / Tableau</text>
  <text x="450" y="160" text-anchor="middle" class="component-text">数据分析工具</text>

  <rect x="590" y="125" width="240" height="50" class="component-box"/>
  <text x="710" y="145" text-anchor="middle" class="component-title">自定义应用</text>
  <text x="710" y="160" text-anchor="middle" class="component-text">C/C++/Java/Python</text>

  <rect x="850" y="125" width="240" height="50" class="component-box"/>
  <text x="970" y="145" text-anchor="middle" class="component-title">其他 ODBC 客户端</text>
  <text x="970" y="160" text-anchor="middle" class="component-text">标准 ODBC 接口</text>

  <rect x="1110" y="125" width="240" height="50" class="component-box"/>
  <text x="1230" y="145" text-anchor="middle" class="component-title">BI 工具</text>
  <text x="1230" y="160" text-anchor="middle" class="component-text">Power BI / Looker</text>

  <!-- Arrow -->
  <path d="M 700 235 L 700 260" class="arrow"/>

  <!-- ODBC API Layer -->
  <rect x="50" y="260" width="1300" height="150" class="layer-bg" fill="#F3E5F5" stroke="#7B1FA2" stroke-width="2"/>
  <text x="70" y="290" class="layer-title" fill="#7B1FA2">ODBC API 层 (ODBC API Layer)</text>

  <rect x="70" y="305" width="150" height="90" class="component-box"/>
  <text x="145" y="325" text-anchor="middle" class="component-title">连接管理</text>
  <text x="145" y="340" text-anchor="middle" class="component-text">SQLAllocHandle</text>
  <text x="145" y="352" text-anchor="middle" class="component-text">SQLConnect</text>
  <text x="145" y="364" text-anchor="middle" class="component-text">SQLDriverConnect</text>
  <text x="145" y="376" text-anchor="middle" class="component-text">SQLFreeHandle</text>

  <rect x="240" y="305" width="150" height="90" class="component-box"/>
  <text x="315" y="325" text-anchor="middle" class="component-title">查询执行</text>
  <text x="315" y="340" text-anchor="middle" class="component-text">SQLPrepare</text>
  <text x="315" y="352" text-anchor="middle" class="component-text">SQLExecute</text>
  <text x="315" y="364" text-anchor="middle" class="component-text">SQLExecDirect</text>
  <text x="315" y="376" text-anchor="middle" class="component-text">SQLBindParameter</text>

  <rect x="410" y="305" width="150" height="90" class="component-box"/>
  <text x="485" y="325" text-anchor="middle" class="component-title">结果处理</text>
  <text x="485" y="340" text-anchor="middle" class="component-text">SQLFetch</text>
  <text x="485" y="352" text-anchor="middle" class="component-text">SQLGetData</text>
  <text x="485" y="364" text-anchor="middle" class="component-text">SQLNumResultCols</text>
  <text x="485" y="376" text-anchor="middle" class="component-text">SQLDescribeCol</text>

  <rect x="580" y="305" width="150" height="90" class="component-box"/>
  <text x="655" y="325" text-anchor="middle" class="component-title">事务管理</text>
  <text x="655" y="340" text-anchor="middle" class="component-text">SQLEndTran</text>
  <text x="655" y="352" text-anchor="middle" class="component-text">SQLSetConnectAttr</text>
  <text x="655" y="364" text-anchor="middle" class="component-text">SQL_ATTR_AUTOCOMMIT</text>
  <text x="655" y="376" text-anchor="middle" class="component-text">提交/回滚</text>

  <rect x="750" y="305" width="150" height="90" class="component-box"/>
  <text x="825" y="325" text-anchor="middle" class="component-title">元数据查询</text>
  <text x="825" y="340" text-anchor="middle" class="component-text">SQLTables</text>
  <text x="825" y="352" text-anchor="middle" class="component-text">SQLColumns</text>
  <text x="825" y="364" text-anchor="middle" class="component-text">SQLPrimaryKeys</text>
  <text x="825" y="376" text-anchor="middle" class="component-text">SQLGetInfo</text>

  <rect x="920" y="305" width="150" height="90" class="component-box"/>
  <text x="995" y="325" text-anchor="middle" class="component-title">诊断信息</text>
  <text x="995" y="340" text-anchor="middle" class="component-text">SQLGetDiagRec</text>
  <text x="995" y="352" text-anchor="middle" class="component-text">SQLGetDiagField</text>
  <text x="995" y="364" text-anchor="middle" class="component-text">错误处理</text>
  <text x="995" y="376" text-anchor="middle" class="component-text">诊断记录</text>

  <rect x="1090" y="305" width="150" height="90" class="component-box"/>
  <text x="1165" y="325" text-anchor="middle" class="component-title">属性管理</text>
  <text x="1165" y="340" text-anchor="middle" class="component-text">SQLSetEnvAttr</text>
  <text x="1165" y="352" text-anchor="middle" class="component-text">SQLGetConnectAttr</text>
  <text x="1165" y="364" text-anchor="middle" class="component-text">SQLSetStmtAttr</text>
  <text x="1165" y="376" text-anchor="middle" class="component-text">属性查询</text>

  <!-- Arrow -->
  <path d="M 700 395 L 700 420" class="arrow"/>

  <!-- Driver Core Layer -->
  <rect x="50" y="420" width="1300" height="160" class="layer-bg" fill="#E8F5E9" stroke="#388E3C" stroke-width="2"/>
  <text x="70" y="450" class="layer-title" fill="#388E3C">驱动核心层 (Driver Core Layer)</text>

  <rect x="70" y="465" width="180" height="100" class="component-box"/>
  <text x="160" y="485" text-anchor="middle" class="component-title">句柄管理</text>
  <text x="160" y="500" text-anchor="middle" class="component-text">TzEnvironmentHandle</text>
  <text x="160" y="512" text-anchor="middle" class="component-text">TzConnectionHandle</text>
  <text x="160" y="524" text-anchor="middle" class="component-text">TzStatementHandle</text>
  <text x="160" y="536" text-anchor="middle" class="component-text">TzDescriptorHandle</text>
  <text x="160" y="548" text-anchor="middle" class="component-text">生命周期管理</text>

  <rect x="270" y="465" width="180" height="100" class="component-box"/>
  <text x="360" y="485" text-anchor="middle" class="component-title">连接管理</text>
  <text x="360" y="500" text-anchor="middle" class="component-text">连接字符串解析</text>
  <text x="360" y="512" text-anchor="middle" class="component-text">参数优先级处理</text>
  <text x="360" y="524" text-anchor="middle" class="component-text">DSN 查询</text>
  <text x="360" y="536" text-anchor="middle" class="component-text">连接状态管理</text>
  <text x="360" y="548" text-anchor="middle" class="component-text">多连接支持</text>

  <rect x="470" y="465" width="180" height="100" class="component-box"/>
  <text x="560" y="485" text-anchor="middle" class="component-title">语句执行</text>
  <text x="560" y="500" text-anchor="middle" class="component-text">SQL 准备/执行</text>
  <text x="560" y="512" text-anchor="middle" class="component-text">参数绑定</text>
  <text x="560" y="524" text-anchor="middle" class="component-text">结果集管理</text>
  <text x="560" y="536" text-anchor="middle" class="component-text">列绑定</text>
  <text x="560" y="548" text-anchor="middle" class="component-text">数据转换</text>

  <rect x="670" y="465" width="180" height="100" class="component-box"/>
  <text x="760" y="485" text-anchor="middle" class="component-title">事务管理</text>
  <text x="760" y="500" text-anchor="middle" class="component-text">事务生命周期</text>
  <text x="760" y="512" text-anchor="middle" class="component-text">自动/手动提交</text>
  <text x="760" y="524" text-anchor="middle" class="component-text">保存点支持</text>
  <text x="760" y="536" text-anchor="middle" class="component-text">隔离级别</text>
  <text x="760" y="548" text-anchor="middle" class="component-text">事务状态追踪</text>

  <rect x="870" y="465" width="180" height="100" class="component-box"/>
  <text x="960" y="485" text-anchor="middle" class="component-title">元数据处理</text>
  <text x="960" y="500" text-anchor="middle" class="component-text">表信息查询</text>
  <text x="960" y="512" text-anchor="middle" class="component-text">列信息查询</text>
  <text x="960" y="524" text-anchor="middle" class="component-text">主键信息</text>
  <text x="960" y="536" text-anchor="middle" class="component-text">元数据缓存</text>
  <text x="960" y="548" text-anchor="middle" class="component-text">动态发现</text>

  <rect x="1070" y="465" width="180" height="100" class="component-box"/>
  <text x="1160" y="485" text-anchor="middle" class="component-title">错误诊断</text>
  <text x="1160" y="500" text-anchor="middle" class="component-text">异常捕获</text>
  <text x="1160" y="512" text-anchor="middle" class="component-text">诊断记录生成</text>
  <text x="1160" y="524" text-anchor="middle" class="component-text">SQLSTATE 映射</text>
  <text x="1160" y="536" text-anchor="middle" class="component-text">错误消息</text>
  <text x="1160" y="548" text-anchor="middle" class="component-text">日志输出</text>

  <!-- Arrow -->
  <path d="M 700 625 L 700 650" class="arrow"/>

  <!-- Database Engine Layer -->
  <rect x="50" y="650" width="1300" height="150" class="layer-bg" fill="#FFF3E0" stroke="#E65100" stroke-width="2"/>
  <text x="70" y="680" class="layer-title" fill="#E65100">数据库引擎层 (Database Engine Layer)</text>

  <rect x="70" y="695" width="220" height="90" class="component-box"/>
  <text x="180" y="715" text-anchor="middle" class="component-title">数据库连接</text>
  <text x="180" y="730" text-anchor="middle" class="component-text">Database 对象</text>
  <text x="180" y="742" text-anchor="middle" class="component-text">连接建立/关闭</text>
  <text x="180" y="754" text-anchor="middle" class="component-text">连接状态检查</text>
  <text x="180" y="766" text-anchor="middle" class="component-text">路径管理</text>

  <rect x="310" y="695" width="220" height="90" class="component-box"/>
  <text x="420" y="715" text-anchor="middle" class="component-title">事务管理器</text>
  <text x="420" y="730" text-anchor="middle" class="component-text">TransactionManager</text>
  <text x="420" y="742" text-anchor="middle" class="component-text">事务创建/提交</text>
  <text x="420" y="754" text-anchor="middle" class="component-text">并发控制</text>
  <text x="420" y="766" text-anchor="middle" class="component-text">MVCC/锁机制</text>

  <rect x="550" y="695" width="220" height="90" class="component-box"/>
  <text x="660" y="715" text-anchor="middle" class="component-title">SQL 上下文</text>
  <text x="660" y="730" text-anchor="middle" class="component-text">SqlContext</text>
  <text x="660" y="742" text-anchor="middle" class="component-text">SQL 解析/执行</text>
  <text x="660" y="754" text-anchor="middle" class="component-text">查询优化</text>
  <text x="660" y="766" text-anchor="middle" class="component-text">结果返回</text>

  <rect x="790" y="695" width="220" height="90" class="component-box"/>
  <text x="900" y="715" text-anchor="middle" class="component-title">数据目录</text>
  <text x="900" y="730" text-anchor="middle" class="component-text">Catalog</text>
  <text x="900" y="742" text-anchor="middle" class="component-text">表结构信息</text>
  <text x="900" y="754" text-anchor="middle" class="component-text">索引管理</text>
  <text x="900" y="766" text-anchor="middle" class="component-text">元数据存储</text>

  <rect x="1030" y="695" width="220" height="90" class="component-box"/>
  <text x="1140" y="715" text-anchor="middle" class="component-title">存储引擎</text>
  <text x="1140" y="730" text-anchor="middle" class="component-text">Storage Engine</text>
  <text x="1140" y="742" text-anchor="middle" class="component-text">数据持久化</text>
  <text x="1140" y="754" text-anchor="middle" class="component-text">索引操作</text>
  <text x="1140" y="766" text-anchor="middle" class="component-text">缓冲管理</text>

</svg>
